<svg width="130" height="68" viewBox="0 0 130 68" fill="none" xmlns="http://www.w3.org/2000/svg">
<path d="M0 33.9482H30C22 39.5481 17.1667 59.6148 16.5 67.9482H76.9999L82.4085 42.9482L125.908 42.9483L130 28.9482H107C107 28.9482 110 0 92 0H29.9999C25.4999 0 20.9999 5.44824 20.9999 10.4482C20.9999 15.8432 23.4999 19.9482 25.9999 19.9482H5.49994L0 33.9482Z" fill="#2C2A29"/>
<path d="M52.1862 43.4482L50.6862 49.4482L38.0176 49.4639L40.0176 43.4639L52.1862 43.4482Z" fill="#E2E2E2"/>
<path d="M42.9999 38.9639H53.0176L54.5176 33.4639H41.9999C26.4823 33.4639 21.9999 63.9639 21.9999 63.9639H28.5177C28.5177 63.9639 31.6898 38.9639 42.9999 38.9639Z" fill="#E2E2E2"/>
<path d="M56.0177 63.4639H50.0177L56.5177 33.4639H62.5177L56.0177 63.4639Z" fill="#E2E2E2"/>
<path d="M72.4999 38.9816L66.5177 63.4639H73.0177L78.5177 38.9482H122L123.518 33.4639H65.0177L63.9999 38.9816H72.4999Z" fill="#E2E2E2"/>
<path d="M73.8928 3.94824C73.8928 3.94824 69.3986 24.9321 61.6358 24.9321C54.0581 24.9321 59.0823 3.94824 59.0823 3.94824H53.9752C53.9752 3.94824 48.9703 28.9482 61.6358 28.9482C74.3014 28.9482 78.9999 3.94824 78.9999 3.94824H73.8928Z" fill="#FFCE00"/>
<path d="M7 29.4641L8.99993 23.9641H38.9999C39.9999 23.9641 42.4999 23.9641 42.4999 20.9478C42.4999 18.964 39.9999 18.964 38.9999 18.964H32.9999C30.4999 18.964 25.4999 16.664 25.4999 11.464C25.4999 6.26395 29.9999 3.94784 32.9999 3.96395H50.4999V9.46411L32.9757 9.46411C31.9759 9.46397 30.4999 9.46378 30.4999 11.4478C30.4999 13.448 32.1666 13.4642 32.9999 13.4641H40.9999C44.9999 13.4478 47.9999 15.4478 47.9999 20.9641C47.9999 27.3641 43.3333 29.2974 40.9999 29.4641H7Z" fill="#FFCE00"/>
<path d="M80.9833 28.9482H75.9999C75.9999 28.9482 78.1926 3.94824 90.9501 3.94824C103.708 3.94824 101.913 28.9482 101.913 28.9482H96.9301C96.9301 28.9482 98.9235 8.02727 90.9501 8.02727C82.9767 8.02727 80.9833 28.9482 80.9833 28.9482Z" fill="#FFCE00"/>
</svg>
